<?xml version="1.0" encoding="utf-8"?>
<!-- Generator: Adobe Illustrator 21.1.0, SVG Export Plug-In . SVG Version: 6.00 Build 0)  -->
<svg version="1.1" id="Ebene_1" xmlns="http://www.w3.org/2000/svg" xmlns:xlink="http://www.w3.org/1999/xlink" x="0px" y="0px"
	 viewBox="0 0 60 60" style="enable-background:new 0 0 60 60;" xml:space="preserve">
<style type="text/css">
	.st0{fill:#027CB7;}
	.st1{fill:#FFFFFF;}
	.st2{fill:#25AAE2;}
	.st3{fill:#CF322E;}
	.st4{fill:#3C5A9B;}
	.st5{fill:none;stroke:#00A28F;stroke-width:6;stroke-miterlimit:10;}
	.st6{fill:none;stroke:#00A28F;stroke-width:3;stroke-miterlimit:10;}
	.st7{fill:#00A28F;}
	.st8{opacity:0.75;}
	.st9{fill:none;stroke:#FFFFFF;stroke-width:0.3;stroke-linecap:round;stroke-linejoin:round;stroke-miterlimit:10;}
	.st10{fill:none;stroke:#000000;stroke-width:0.3;stroke-linecap:round;stroke-linejoin:round;stroke-miterlimit:10;}
	.st11{stroke:#FFFFFF;stroke-width:0.2;stroke-linecap:round;stroke-linejoin:round;stroke-miterlimit:10;}
	.st12{stroke:#000000;stroke-width:0.2;stroke-miterlimit:10;}
	.st13{stroke:#FFFFFF;stroke-width:0.2;stroke-linejoin:round;stroke-miterlimit:10;}
	.st14{fill-rule:evenodd;clip-rule:evenodd;fill:#FFFFFF;}
	.st15{fill:none;stroke:#000000;}
	.st16{fill-rule:evenodd;clip-rule:evenodd;}
	.st17{fill:#2C2A29;}
</style>
<polygon class="st1" points="55,10 52,10 52,10 8,10 8,10 5,10 5,10 5,13 5,38.4 5,41.4 5,41.4 14,41.4 14,38.4 8,38.4 8,13 52,13 
	52,38.4 35.8,38.4 35.8,38.4 22.3,52 24.4,54.1 37.1,41.4 55,41.4 55,41.4 55,41.4 "/>
<rect x="20.5" y="20.3" class="st1" width="19.2" height="3"/>
<rect x="15" y="27.7" class="st1" width="30.1" height="3"/>
</svg>
