<?xml version="1.0" encoding="utf-8"?>
<!-- Generator: Adobe Illustrator 21.1.0, SVG Export Plug-In . SVG Version: 6.00 Build 0)  -->
<svg version="1.1" id="Ebene_1" xmlns="http://www.w3.org/2000/svg" xmlns:xlink="http://www.w3.org/1999/xlink" x="0px" y="0px"
	 viewBox="0 0 60 60" style="enable-background:new 0 0 60 60;" xml:space="preserve">
<style type="text/css">
	.st0{fill:#027CB7;}
	.st1{fill:#FFFFFF;}
	.st2{fill:#25AAE2;}
	.st3{fill:#CF322E;}
	.st4{fill:#3C5A9B;}
	.st5{fill:none;stroke:#00A28F;stroke-width:6;stroke-miterlimit:10;}
	.st6{fill:none;stroke:#00A28F;stroke-width:3;stroke-miterlimit:10;}
	.st7{fill:#00A28F;}
	.st8{opacity:0.75;}
	.st9{fill:none;stroke:#FFFFFF;stroke-width:0.3;stroke-linecap:round;stroke-linejoin:round;stroke-miterlimit:10;}
	.st10{fill:none;stroke:#000000;stroke-width:0.3;stroke-linecap:round;stroke-linejoin:round;stroke-miterlimit:10;}
	.st11{stroke:#FFFFFF;stroke-width:0.2;stroke-linecap:round;stroke-linejoin:round;stroke-miterlimit:10;}
	.st12{stroke:#000000;stroke-width:0.2;stroke-miterlimit:10;}
	.st13{stroke:#FFFFFF;stroke-width:0.2;stroke-linejoin:round;stroke-miterlimit:10;}
	.st14{fill-rule:evenodd;clip-rule:evenodd;fill:#FFFFFF;}
	.st15{fill:none;stroke:#000000;}
	.st16{fill-rule:evenodd;clip-rule:evenodd;}
	.st17{fill:#2C2A29;}
</style>
<g>
	<g>
		<path class="st1" d="M53.5,13v34h-47V13H53.5 M56.5,10h-53v40h53V10L56.5,10z"/>
	</g>
	<g>
		<path class="st1" d="M49.4,13L31,31.7c-0.4,0.4-0.8,0.4-1,0.4c-0.2,0-0.7-0.1-1-0.4L10.6,13H49.4 M56.5,10L56.5,10L56.5,10z
			 M56.5,10h-53l23.3,23.8c0.9,0.9,2,1.3,3.2,1.3s2.3-0.4,3.2-1.3L56.5,10L56.5,10z"/>
	</g>
</g>
</svg>
