<?xml version="1.0" encoding="utf-8"?>
<!-- Generator: Adobe Illustrator 21.1.0, SVG Export Plug-In . SVG Version: 6.00 Build 0)  -->
<svg version="1.1" id="Ebene_1" xmlns="http://www.w3.org/2000/svg" xmlns:xlink="http://www.w3.org/1999/xlink" x="0px" y="0px"
	 viewBox="0 0 60 60" style="enable-background:new 0 0 60 60;" xml:space="preserve">
<style type="text/css">
	.st0{fill:#027CB7;}
	.st1{fill:#FFFFFF;}
	.st2{fill:#25AAE2;}
	.st3{fill:#CF322E;}
	.st4{fill:#3C5A9B;}
	.st5{fill:none;stroke:#00A28F;stroke-width:6;stroke-miterlimit:10;}
	.st6{fill:none;stroke:#00A28F;stroke-width:3;stroke-miterlimit:10;}
	.st7{fill:#00A28F;}
	.st8{fill:#777A7E;}
	.st9{fill-rule:evenodd;clip-rule:evenodd;fill:#777A7E;}
	.st10{opacity:0.75;}
	.st11{fill:none;stroke:#000000;stroke-width:0.3;stroke-linecap:round;stroke-linejoin:round;stroke-miterlimit:10;}
	.st12{stroke:#000000;stroke-width:0.2;stroke-linecap:round;stroke-linejoin:round;stroke-miterlimit:10;}
	.st13{stroke:#000000;stroke-width:0.2;stroke-miterlimit:10;}
	.st14{stroke:#000000;stroke-width:0.2;stroke-linejoin:round;stroke-miterlimit:10;}
	.st15{fill-rule:evenodd;clip-rule:evenodd;}
	.st16{fill:#2C2A29;}
	.st17{fill:none;stroke:#000000;}
</style>
<circle class="st2" cx="30" cy="30" r="20"/>
<g>
	<path class="st1" d="M38.2,26.2c0,0.2,0,0.4,0,0.5c0,5.3-4.1,11.5-11.5,11.5c-2.3,0-4.4-0.7-6.2-1.8c0.3,0,0.6,0.1,1,0.1
		c1.9,0,3.6-0.6,5-1.7c-1.8,0-3.3-1.2-3.8-2.8c0.3,0,0.5,0.1,0.8,0.1c0.4,0,0.7,0,1.1-0.1c-1.8-0.4-3.2-2-3.2-4c0,0,0,0,0,0
		c0.5,0.3,1.2,0.5,1.8,0.5c-1.1-0.7-1.8-2-1.8-3.4c0-0.8,0.2-1.4,0.6-2c2,2.4,5,4,8.3,4.2c-0.1-0.3-0.1-0.6-0.1-0.9c0-2.2,1.8-4,4-4
		c1.2,0,2.2,0.5,2.9,1.3c0.9-0.2,1.8-0.5,2.6-1c-0.3,0.9-0.9,1.7-1.8,2.2c0.8-0.1,1.6-0.3,2.3-0.6C39.6,24.9,38.9,25.6,38.2,26.2z"
		/>
</g>
</svg>
