<?xml version="1.0" encoding="utf-8"?>
<!-- Generator: Adobe Illustrator 21.1.0, SVG Export Plug-In . SVG Version: 6.00 Build 0)  -->
<svg version="1.1" id="Ebene_1" xmlns="http://www.w3.org/2000/svg" xmlns:xlink="http://www.w3.org/1999/xlink" x="0px" y="0px"
	 viewBox="0 0 60 60" style="enable-background:new 0 0 60 60;" xml:space="preserve">
<style type="text/css">
	.st0{fill:#027CB7;}
	.st1{fill:#FFFFFF;}
	.st2{fill:#25AAE2;}
	.st3{fill:#CF322E;}
	.st4{fill:#3C5A9B;}
	.st5{fill:none;stroke:#00A28F;stroke-width:6;stroke-miterlimit:10;}
	.st6{fill:none;stroke:#00A28F;stroke-width:3;stroke-miterlimit:10;}
	.st7{fill:#00A28F;}
	.st8{opacity:0.75;}
	.st9{fill:none;stroke:#FFFFFF;stroke-width:0.3;stroke-linecap:round;stroke-linejoin:round;stroke-miterlimit:10;}
	.st10{fill:none;stroke:#000000;stroke-width:0.3;stroke-linecap:round;stroke-linejoin:round;stroke-miterlimit:10;}
	.st11{stroke:#FFFFFF;stroke-width:0.2;stroke-linecap:round;stroke-linejoin:round;stroke-miterlimit:10;}
	.st12{stroke:#000000;stroke-width:0.2;stroke-miterlimit:10;}
	.st13{stroke:#FFFFFF;stroke-width:0.2;stroke-linejoin:round;stroke-miterlimit:10;}
	.st14{fill-rule:evenodd;clip-rule:evenodd;fill:#FFFFFF;}
	.st15{fill:none;stroke:#000000;}
	.st16{fill-rule:evenodd;clip-rule:evenodd;}
	.st17{fill:#2C2A29;}
</style>
<g>
	<g>
		<path class="st1" d="M16.7,46.5c0,0,0.3,0.6,0.3,0.9c0,0.3,0.1,0.8-0.1,0.9c-0.2,0.1-0.8,0.2-1,0.2c-0.2-0.1-0.4-0.2-0.6,0
			c-0.1,0.2-0.3,0.7-1.7,0.8c-1.4,0-1.6-0.4-1.6-0.6c0-0.2,0.1-0.7,0.7-0.7c0.6-0.1,1.1-0.5,1.3-0.7c0.2-0.2,0.2-0.6,0.4-0.6
			C14.7,46.5,16.7,46.5,16.7,46.5"/>
		<path class="st1" d="M23.4,47.8c0,0,0,0.4,0.1,0.8c0.1,0.3,0.3,1-0.3,1.3c-0.6,0.3-1.9,0.2-2,0c-0.2-0.2-0.2-1-0.1-1.4
			c0.1-0.4,0.2-1,0.2-1.1c0-0.1,1.9-0.3,1.9-0.1C23.4,47.5,23.4,47.8,23.4,47.8"/>
		<g>
			<path class="st11" d="M27.7,22.1c-0.1-0.6-0.5-1.2-0.9-1.7c-0.2-0.2-0.4-0.4-0.5-0.6c-0.1-0.2-0.3-0.3-0.3-0.3
				c-0.2-0.2-0.5-0.5-0.6-0.8c0,0-0.1-0.1-0.1-0.2c-0.2-0.2-0.6-0.6-1-0.9c-0.4-0.4-0.9-0.7-1.1-1c-0.2-0.1-0.4-0.3-0.7-0.4
				c-0.4-0.2-0.9-0.3-1.3-0.4c-0.2-0.1-0.4-0.1-0.5-0.1c-0.1,0-0.1,0-0.2,0c0,0,0,0,0,0l0,0l0,0c0,0,0,0,0,0
				c-0.1-0.1-0.2-0.2-0.3-0.4c0-0.1-0.1-0.1-0.1-0.2c0,0,0-0.1,0-0.1c0,0,0-0.1,0-0.2c0-0.2,0.1-0.4,0.1-0.7C20,14.1,20,14,20,14
				c0-0.1,0-0.1,0-0.1l0,0l0,0c-0.1-0.9-0.1-1.4-0.2-1.8c-0.1-0.4-0.2-0.6-0.4-1.1c0-0.1-0.1-0.2-0.2-0.3c-0.3-0.3-0.8-0.7-1.6-0.7
				c-0.5,0-1,0.1-1.6,0.5c-0.5,0.3-0.8,0.6-0.9,1c-0.2,0.4-0.2,0.9-0.2,1.3c0,0.5,0.1,1,0.2,1.4c0.1,0.4,0.2,0.7,0.2,0.8
				c0.1,0.4,0.3,0.9,0.4,1.1c-0.1,0-0.2,0-0.4,0.1c-0.5,0.2-1.3,0.6-1.8,0.8c-0.3,0.2-0.7,0.6-1.1,1c-0.4,0.5-0.7,1-1,1.4
				c-0.6,0.8-0.7,1.1-1.1,1.8c-0.2,0.4-0.3,0.9-0.3,1.2c0,0.2,0,0.3,0,0.4c0,0.1,0,0.2,0,0.2s0,0.1,0,0.1c0,0,0,0.1,0,0.1
				c-0.1,0.3-0.1,0.4-0.2,0.8c0,0,0,0.1,0,0.1c0,0.2,0,0.3,0.1,0.5c0,0.1,0.1,0.3,0.2,0.3c0,0,0.1,0.1,0.1,0.1c0,0.1,0,0.2,0,0.3
				c0,0,0,0.1,0,0.1c0,0,0.1,0.1,0.1,0.1c0.1,0.1,0.2,0.2,0.3,0.3c0.1,0.1,0.2,0.2,0.3,0.4c0.1,0.1,0.4,0.3,0.6,0.5
				c0.1,0.1,0.2,0.2,0.3,0.3c0,0,0.1,0.1,0.1,0.1c0,0,0.1,0,0.1,0.1c0,0,0,0,0.1,0c0,0,0.1,0,0.1,0c0,0,0-0.1,0.1-0.1
				c0-0.1,0-0.1,0-0.2c0,0,0-0.1,0-0.1c0.1-0.1,0.2-0.4,0.4-0.6c0.1-0.1,0.2-0.2,0.3-0.3c0.1-0.1,0.2-0.1,0.2-0.2
				c0.1,0,0.1-0.1,0.1-0.1c0,0,0.1-0.1,0.1-0.1c0,0,0,0,0-0.1c0,0,0,0-0.1-0.1l0,0c0,0-0.1-0.1-0.1-0.2s-0.1-0.2-0.1-0.3
				c0-0.1,0-0.3-0.1-0.5c0-0.2-0.1-0.4-0.1-0.5c0-0.1,0-0.2,0-0.3s0-0.2,0-0.3c0-0.1,0.1-0.1,0.1-0.1l0,0l0,0c0.1,0,0.1-0.1,0.1-0.1
				c0.1-0.1,0.1-0.2,0.2-0.3c0.1-0.1,0.1-0.2,0.2-0.3l0,0c0,0,0,0.1,0,0.2c0,0.1,0,0.2,0,0.3c0,0.2,0,0.5,0,0.6c0,0,0,0.1,0,0.1
				c0,0.2,0.1,0.5,0.1,0.9c0.1,0.3,0.2,0.7,0.2,1.1c0,0.1,0,0.1,0,0.2c0,0.4-0.1,1-0.2,1.5c-0.1,0.3-0.1,0.5-0.2,0.7
				c0,0.2-0.1,0.4-0.1,0.5c0,0,0,0.1,0,0.1l0,0l0,0c0,0,0,0.1,0,0.1c0,0.2-0.1,0.7-0.1,1.1c-0.1,0.5-0.1,1-0.1,1.3
				c0,0.8-0.1,3.4-0.1,4.4c0,0.3,0,0.6,0,0.9c0,0.8,0,1.5,0.1,1.8c0,0.2,0,0.5,0,0.8c0,0.2,0,0.3,0,0.4c0,0.1,0,0.2,0.1,0.3
				c0.1,0.3,0.3,0.7,0.3,1.2c0,0.5,0.1,2.2,0.1,2.9c0,0.3,0,0.7-0.1,1.1c0,0.2-0.1,0.3-0.1,0.4c0,0.1-0.1,0.2-0.1,0.3
				c0,0,0,0.1,0,0.2c0,0.1,0.1,0.3,0.2,0.4c0,0.1,0.1,0.1,0.1,0.2c0.1,0,0.1,0.1,0.2,0.1c0.1,0,0.2,0,0.3,0.1c0.1,0,0.2,0.1,0.4,0.1
				c0.2,0.1,0.7,0.1,1.1,0.1c0.2,0,0.3,0,0.4,0c0.2,0,0.4-0.1,0.5-0.2c0.1-0.1,0.2-0.3,0.4-0.5c0.2-0.2,0.2-0.6,0.2-0.9
				c0-0.3,0-0.6,0-0.7c0-0.3,0-0.9,0.1-1.5c0-0.1,0-0.3,0-0.4c0-0.2,0-0.3,0-0.4c0-0.1,0-0.2,0-0.3c0.1-0.2,0.1-0.4,0.1-0.7
				c0-0.3,0.1-0.6,0.1-0.9c0-0.3,0-0.7,0.1-1.1c0-0.4,0.1-0.8,0.1-1.2c0-0.1,0-0.2,0-0.3c0-0.1,0-0.1,0-0.2c0-0.3,0.1-0.7,0.1-1
				c0-0.2,0-0.3,0.1-0.4c0.1,0.2,0.3,0.7,0.4,1.1c0.1,0.3,0.2,0.7,0.2,1s0.1,0.7,0.3,1c0.1,0.3,0.2,0.7,0.3,1.2
				c0.1,0.5,0.2,0.9,0.3,1.2c0.1,0.5,0.4,1.2,0.5,1.8c0,0.3,0.1,0.5,0.3,0.7c0.1,0.2,0.3,0.3,0.5,0.5c0.1,0.2,0.2,0.4,0.2,0.5
				c0,0.2-0.1,0.5-0.1,0.7c0,0.2-0.1,0.4-0.1,0.6c0,0.3,0.1,0.5,0.4,0.8c0.2,0.2,0.5,0.3,0.9,0.3c0.5,0,1-0.2,1.4-0.2
				c0.1,0,0.2,0,0.2-0.1c0.1-0.1,0.2-0.2,0.2-0.3c0-0.1,0.1-0.3,0.1-0.4c0-0.4-0.1-0.7-0.2-1c0-0.1,0-0.2,0-0.3
				c0-0.3,0.1-0.8,0.2-1.2c0.1-0.4,0.2-0.8,0.3-1.1c0-0.1,0.1-0.3,0.1-0.4c0-0.3-0.1-0.6-0.2-0.8c-0.1-0.2-0.2-0.5-0.3-0.6
				c-0.1-0.1-0.1-0.2-0.1-0.3c0-0.1,0-0.2,0-0.3c0-0.1,0-0.2,0-0.3c0-0.1,0-0.2,0-0.3c0-0.1,0-0.2-0.1-0.3c-0.1-0.1-0.1-0.2-0.1-0.2
				c0-0.1,0-0.2,0-0.4c0,0,0-0.1,0-0.1c0,0,0,0,0-0.1c0-0.3-0.1-0.5-0.1-0.6c-0.1-0.2-0.2-0.3-0.3-0.5c-0.1-0.2-0.1-0.4-0.1-0.6
				c0-0.3,0-0.6,0-1.1c-0.1-0.5-0.1-1.3-0.1-2.1c0-0.6,0-1.2,0-1.7c0,0,0-0.1,0-0.1c0-0.6-0.2-1.4-0.3-2.3c-0.1-0.4-0.2-0.8-0.3-1.1
				c-0.1-0.3-0.2-0.6-0.2-0.7c-0.1-0.2-0.2-0.5-0.2-0.8c-0.1-0.3-0.1-0.7-0.1-0.9c0-0.1,0-0.3,0-0.3c0-0.1,0-0.2,0.1-0.2
				c0.1-0.1,0.1-0.2,0.2-0.3c0.2-0.4,0.4-1,0.5-1.6c0-0.2,0-0.4,0-0.6c0-0.2,0-0.4,0-0.6c0-0.1,0-0.2,0-0.2c0,0,0,0,0-0.1
				c0,0,0,0,0,0c0.1,0,0.1-0.1,0.2-0.1c0.1-0.1,0.2-0.2,0.4-0.2c0.1,0,0.1-0.1,0.1-0.1c0,0,0,0,0,0c0,0,0,0.1,0,0.1
				c0,0.1,0.1,0.2,0.1,0.3c0,0.1,0.1,0.2,0.2,0.2c0.1,0,0.1,0.2,0.2,0.3c0,0.1,0.1,0.1,0.1,0.2c0,0,0.1,0.1,0.1,0.1
				c0,0,0.1,0.1,0.1,0.1c0,0.1,0,0.1,0,0.1c0,0,0,0,0,0c0,0,0,0,0,0.1c0,0,0,0.1,0,0.1c0,0.1,0,0.1,0,0.2c0,0,0,0,0,0.1c0,0,0,0,0,0
				c0,0-0.1,0.1-0.1,0.1c0,0.1-0.1,0.1-0.1,0.2c0,0.1-0.1,0.1-0.1,0.2c-0.1,0.1-0.2,0.2-0.3,0.3c-0.1,0.1-0.2,0.3-0.4,0.5
				c-0.1,0.2-0.4,0.4-0.6,0.5c-0.1,0.1-0.2,0.1-0.3,0.2s-0.2,0.1-0.2,0.1c0,0,0,0-0.1,0c0,0,0,0,0,0.1c0,0.1,0,0.1,0.1,0.2
				c0.1,0.2,0.4,0.6,0.6,1c0.1,0.2,0.2,0.3,0.4,0.4c0.1,0.1,0.1,0.1,0.1,0.2c0,0,0.1,0.1,0.1,0.1c0,0,0,0,0.1,0c0,0,0.1,0,0.2,0
				c0.2-0.1,0.5-0.3,0.8-0.4c0.1-0.1,0.3-0.2,0.4-0.2c0.1-0.1,0.2-0.1,0.2-0.1c0.1,0,0.2,0,0.4,0c0.2,0,0.3,0,0.4-0.1
				c0.1-0.1,0.1-0.1,0.2-0.2c0-0.1,0-0.1,0-0.2c0,0,0-0.1,0-0.1c0,0,0,0,0,0c0,0,0,0,0,0c0,0,0.1,0,0.2-0.1c0.1-0.1,0.3-0.2,0.5-0.3
				c0.2-0.2,0.4-0.3,0.6-0.5c0.2-0.2,0.3-0.5,0.4-0.9c0.1-0.4,0.1-0.7,0.2-1c0.1-0.3,0.1-0.5,0.1-0.7C27.8,22.3,27.7,22.1,27.7,22.1
				z M23.3,21.7L23.3,21.7L23.3,21.7L23.3,21.7z M27.6,23.3c-0.1,0.3-0.2,0.7-0.2,1.1c-0.1,0.4-0.2,0.7-0.4,0.8
				c-0.2,0.2-0.4,0.4-0.6,0.5C26.2,25.8,26,26,25.9,26c-0.1,0-0.1,0-0.2,0c0,0,0,0,0,0c0,0,0,0,0,0l0,0c0,0,0,0,0,0c0,0,0,0,0,0
				c0,0,0,0,0,0.1c0,0,0,0.1,0,0.1c0,0.1,0,0.1,0,0.2c0,0-0.1,0.1-0.1,0.1c-0.1,0.1-0.2,0.1-0.4,0.1c-0.1,0-0.3,0-0.4,0.1
				c0,0-0.1,0-0.1,0.1c-0.2,0.1-0.5,0.3-0.8,0.5c-0.1,0.1-0.3,0.2-0.4,0.2c-0.1,0-0.1,0-0.2,0.1c0,0-0.1,0-0.1,0c0,0,0,0,0,0v0
				c0,0,0,0-0.1-0.1c-0.2-0.2-0.4-0.5-0.7-0.9c-0.1-0.2-0.2-0.3-0.3-0.5c0-0.1-0.1-0.1-0.1-0.2c0-0.1,0-0.1,0-0.1
				c0.1,0,0.1,0,0.2-0.1c0.3-0.2,0.7-0.5,0.9-0.7c0.2-0.2,0.3-0.3,0.4-0.5c0.1-0.1,0.2-0.3,0.3-0.3c0.1-0.1,0.2-0.2,0.2-0.3
				c0,0,0.1-0.1,0.1-0.1c0,0,0-0.1,0.1-0.1c0,0,0,0,0.1-0.1c0,0,0-0.1,0-0.1c0-0.1,0-0.1,0-0.2c0,0,0,0,0,0v0l0,0l0,0c0,0,0,0,0,0
				c0,0,0,0,0-0.1c0-0.1,0-0.1-0.1-0.2c0-0.1-0.1-0.1-0.1-0.2c0,0-0.1-0.1-0.1-0.1c0-0.1-0.1-0.2-0.1-0.2c-0.1-0.1-0.1-0.2-0.2-0.2
				c-0.1-0.1-0.1-0.2-0.2-0.3c0-0.1,0-0.1-0.1-0.2s0-0.1,0-0.1c0,0,0,0,0-0.1s0,0-0.1,0c0,0-0.1,0-0.1,0c-0.1,0-0.2,0.1-0.4,0.2
				c-0.1,0-0.1,0.1-0.2,0.1c-0.1,0-0.1,0.1-0.2,0.1c0,0-0.1,0-0.1,0.1c0,0-0.1,0.1-0.1,0.2s0,0.1,0,0.2c0,0.2,0,0.4,0,0.6
				c0,0.2,0,0.4,0,0.6c-0.1,0.4-0.2,0.8-0.3,1.1c-0.1,0.2-0.1,0.3-0.2,0.5c-0.1,0.1-0.1,0.2-0.2,0.3c0,0.1-0.1,0.1-0.1,0.2
				c0,0.1,0,0.2,0,0.4c0,0.3,0,0.6,0.1,0.9s0.1,0.6,0.2,0.8c0.1,0.1,0.1,0.4,0.2,0.7c0.1,0.5,0.3,1.1,0.4,1.8
				c0.1,0.6,0.2,1.2,0.2,1.6c0,0.1,0,0.1,0,0.1c0,0.4,0,1,0,1.7c0,0.8,0,1.6,0.1,2.1c0.1,0.4,0,0.8,0,1.1c0,0.3,0,0.5,0.1,0.7
				c0.1,0.2,0.2,0.3,0.3,0.5c0.1,0.2,0.1,0.4,0.1,0.6c0,0,0,0,0,0.1c0,0.1,0,0.1,0,0.2c0,0.2,0,0.3,0.1,0.4c0,0.1,0.1,0.1,0.1,0.2
				c0,0.1,0.1,0.1,0.1,0.3c0,0.1,0,0.2,0,0.3c0,0.1,0,0.3,0,0.3c0,0.1,0,0.2,0,0.3s0,0.2,0.1,0.4c0.1,0.1,0.2,0.3,0.3,0.5
				s0.2,0.5,0.2,0.8c0,0.1,0,0.2-0.1,0.4c-0.1,0.3-0.2,0.7-0.3,1.1c-0.1,0.4-0.2,0.9-0.2,1.2c0,0.1,0,0.3,0,0.4
				c0.1,0.2,0.2,0.6,0.2,0.9c0,0.2,0,0.4-0.1,0.5c0,0.1-0.1,0.1-0.1,0.2c0,0-0.1,0.1-0.2,0.1c-0.4,0.1-0.9,0.2-1.4,0.2
				c-0.3,0-0.6-0.1-0.8-0.3c-0.3-0.3-0.4-0.5-0.4-0.7c0-0.2,0.1-0.4,0.1-0.6c0-0.2,0.1-0.4,0.1-0.7c0-0.2-0.1-0.4-0.2-0.6
				c-0.2-0.2-0.3-0.3-0.5-0.5c-0.1-0.1-0.2-0.3-0.3-0.6c-0.1-0.6-0.4-1.3-0.5-1.8c-0.1-0.3-0.2-0.7-0.3-1.2
				c-0.1-0.5-0.2-0.9-0.4-1.2c-0.1-0.3-0.2-0.6-0.3-1c-0.1-0.4-0.1-0.7-0.2-1C18.3,36.7,18,36,18,36l-0.1-0.2l0,0.2
				c0,0-0.2,1-0.2,1.6c0,0.1,0,0.1,0,0.2c0,0.1,0,0.2,0,0.2c0,0.3,0,0.7-0.1,1.2c0,0.4-0.1,0.8-0.1,1.1c0,0.3,0,0.6-0.1,0.9
				c0,0.3-0.1,0.5-0.1,0.7c0,0.1-0.1,0.2-0.1,0.3c0,0.1,0,0.3,0,0.4c0,0.1,0,0.2,0,0.4c-0.1,0.6-0.1,1.2-0.1,1.5c0,0.1,0,0.4,0,0.7
				c0,0.3,0,0.6-0.2,0.8c-0.2,0.2-0.3,0.4-0.4,0.5c-0.1,0.1-0.2,0.2-0.4,0.2c-0.1,0-0.3,0-0.4,0c-0.4,0-0.8,0-1-0.1
				c-0.1,0-0.3-0.1-0.3-0.1c-0.1,0-0.2-0.1-0.3-0.1c0,0-0.1,0-0.1,0c-0.1,0-0.1-0.1-0.2-0.2c0-0.1-0.1-0.2-0.1-0.3c0,0,0-0.1,0-0.1
				c0-0.1,0.1-0.2,0.1-0.3c0.1-0.4,0.2-1,0.2-1.6c0-0.7-0.1-2.5-0.1-2.9c0-0.5-0.2-1-0.3-1.2c0-0.1,0-0.2-0.1-0.3c0-0.2,0-0.4,0-0.7
				c0-0.2,0-0.5,0-0.6c0-0.3-0.1-1-0.1-1.8c0-0.3,0-0.6,0-0.9c0-1,0.1-3.7,0.1-4.4c0-0.3,0.1-0.8,0.1-1.3c0.1-0.5,0.1-0.9,0.1-1.2
				c0,0,0-0.1,0-0.1c0,0,0-0.1,0-0.1l0,0c0,0,0,0,0,0c0-0.1,0-0.2,0.1-0.4c0.1-0.3,0.2-0.7,0.2-1.1c0.1-0.4,0.1-0.8,0.1-1.1
				c0-0.1,0-0.2,0-0.2c-0.1-0.3-0.1-0.7-0.2-1.1c-0.1-0.3-0.1-0.7-0.1-0.9c0,0,0-0.1,0-0.1c0-0.2,0-0.4,0-0.6c0-0.1,0-0.3,0-0.4
				c0,0,0-0.1,0-0.1c0,0,0,0,0,0c0,0,0,0-0.1,0c0,0,0,0-0.1,0c0,0,0,0,0,0c-0.1,0.1-0.2,0.3-0.3,0.4c0,0.1-0.1,0.1-0.1,0.2
				s-0.1,0.1-0.1,0.1l0,0c-0.1,0-0.1,0.1-0.1,0.2c0,0.1,0,0.2,0,0.3c0,0.1,0,0.2,0,0.3c0,0.1,0.1,0.3,0.1,0.5c0,0.2,0.1,0.3,0.1,0.4
				c0,0.1,0.1,0.3,0.1,0.4c0.1,0.1,0.1,0.2,0.1,0.2l0,0l0,0l0,0l0,0l0,0c0,0,0,0,0,0c0,0-0.1,0-0.1,0.1c-0.1,0-0.2,0.1-0.3,0.2
				c-0.2,0.1-0.3,0.3-0.5,0.5c-0.1,0.1-0.1,0.2-0.2,0.3c0,0.1-0.1,0.1-0.1,0.2c0,0.1,0,0.2,0,0.2c0,0,0,0,0,0l0,0c0,0,0,0,0,0
				c0,0,0,0-0.1,0c-0.2-0.2-0.8-0.7-1-0.9c-0.1-0.1-0.2-0.2-0.3-0.3c-0.1-0.1-0.2-0.2-0.3-0.3c0,0-0.1-0.1-0.1-0.1
				c0-0.1,0-0.2,0-0.3c0,0,0-0.1,0-0.1c0,0-0.1-0.1-0.1-0.1c-0.1,0-0.1-0.1-0.2-0.3c0-0.1-0.1-0.3-0.1-0.4c0,0,0-0.1,0-0.1
				c0-0.4,0.1-0.5,0.2-0.8c0-0.1,0-0.1,0-0.2c0-0.1,0-0.1,0-0.2c0-0.1,0-0.1,0-0.2c0-0.1,0-0.2,0-0.4c0-0.3,0-0.7,0.3-1.1
				c0.4-0.7,0.5-0.9,1.1-1.8c0.3-0.4,0.6-0.9,1-1.4c0.4-0.5,0.7-0.8,1-1c0.3-0.2,0.8-0.4,1.2-0.6c0.2-0.1,0.4-0.2,0.6-0.2
				c0.2-0.1,0.3-0.1,0.4-0.1l0.1,0l0-0.1c0,0,0,0,0-0.1c-0.1-0.2-0.3-0.7-0.4-1c0-0.1-0.1-0.4-0.2-0.8C15,13.8,15,13.3,15,12.8
				c0-0.4,0.1-0.9,0.2-1.2s0.4-0.7,0.9-1c0.6-0.3,1.1-0.5,1.5-0.5c0.5,0,0.9,0.2,1.2,0.4c0.1,0.1,0.3,0.2,0.4,0.3
				c0.1,0.1,0.1,0.2,0.2,0.2c0.2,0.5,0.3,0.7,0.4,1.1c0.1,0.4,0.1,0.8,0.2,1.7c0,0-0.1,0.2-0.1,0.4c-0.1,0.2-0.1,0.5-0.1,0.7
				c0,0.1,0,0.1,0,0.2l0,0l0,0c0,0,0.1,0.2,0.2,0.3c0.1,0.1,0.1,0.2,0.2,0.2c0,0,0,0.1,0.1,0.1c0,0,0,0,0.1,0.1c0,0,0,0,0.1,0
				c0.1,0,0.3,0.1,0.5,0.1c0.3,0.1,0.8,0.2,1.2,0.3c0.4,0.1,0.8,0.3,1,0.5c0.3,0.3,0.9,0.7,1.3,1.1c0.2,0.2,0.4,0.4,0.6,0.6
				c0.1,0.1,0.2,0.2,0.2,0.2c0.1,0.1,0.1,0.1,0.1,0.1c0.1,0.3,0.5,0.7,0.7,0.8c0.1,0,0.2,0.1,0.3,0.3c0.4,0.4,1.2,1.3,1.4,2.2l0,0
				c0,0,0,0.2,0,0.5C27.7,22.8,27.6,23.1,27.6,23.3z"/>
			<polygon class="st12" points="13.2,23.2 13.2,23.2 13.2,23.2 			"/>
		</g>
		<path class="st13" d="M17.7,15.6c0,0,0,0.1,0,0.2c0,0.5,0,1.9-0.1,3c-0.1,0.7-0.3,2-0.4,3.4c-0.2,1.4-0.3,2.9-0.3,3.7
			c0,0.1,0,0.3,0,0.4c0.1,0.7,0.1,2.1,0.2,3.4c0,0.6,0.1,1.2,0.1,1.7c0,0.5,0,0.8,0,0.9c0,0.2-0.1,0.4-0.2,0.7
			c0,0.1-0.1,0.2-0.1,0.3c0,0,0,0.1-0.1,0.1c0,0,0,0,0,0l0,0l0,0l0,0h0l0,0l0,0l0,0l0,0l0,0v0l0,0l0,0v0v0l0,0l0,0v0l0,0l0,0l0,0
			l0,0l0,0l0,0l0,0l0,0l0,0l0,0c0,0,0,0,0-0.1c0-0.1-0.1-0.4-0.1-0.7c0-0.3-0.1-0.7-0.1-1.2c0-1-0.3-3.2-0.3-5.1c0-0.2,0-0.3,0-0.5
			c0.1-1.9,0.5-6,0.5-7.1c0-0.5,0.1-1.1,0.1-1.6c0-0.5,0.1-1,0.1-1.3c0-0.1,0-0.1,0-0.1c0,0,0-0.1,0-0.1l0,0h0v0l0,0h0
			c0,0,0,0,0.1,0c0.1-0.1,0.3-0.1,0.5-0.1c0,0,0.1,0,0.1,0C17.7,15.6,17.7,15.6,17.7,15.6L17.7,15.6c0-0.1,0-0.1-0.1-0.1
			c0,0-0.1,0-0.1,0c-0.1,0-0.3,0-0.4,0.1c-0.1,0-0.1,0-0.2,0.1c0,0,0,0-0.1,0.1c0,0,0,0,0,0.1c0,0,0,0,0,0l0,0c0,0,0,0,0,0.1
			c0,0,0,0.1,0,0.1c0,0.3,0,0.7-0.1,1.3c0,0.5-0.1,1.1-0.1,1.6c-0.1,1.1-0.5,5.2-0.5,7.1c0,0.2,0,0.3,0,0.5c0,1.9,0.3,4,0.3,5.1
			c0,0.5,0,1,0.1,1.4c0,0.2,0.1,0.3,0.1,0.4c0,0.1,0,0.1,0.1,0.1c0,0,0,0,0,0c0,0,0,0,0.1,0l0,0c0,0,0.1,0,0.1-0.1
			c0,0,0.1-0.1,0.1-0.2c0.1-0.1,0.1-0.3,0.2-0.5c0-0.2,0.1-0.3,0.1-0.4c0-0.1,0-0.4,0-0.9c-0.1-1.4-0.2-4-0.3-5.1c0-0.1,0-0.2,0-0.4
			c0-0.9,0.2-2.3,0.3-3.7c0.2-1.4,0.4-2.8,0.4-3.4c0.1-1.1,0.1-2.5,0.1-3.1c0-0.1,0-0.2,0-0.2"/>
		<path class="st1" d="M13.6,25.6c0,0,0.8,0.4,1,0.9c0.2,0.4,0.5,1.3,0.4,1.3c0,0,0.1,0.5-0.4,0.5c0,0,0,0.5-0.5,0.2
			c0,0-0.2,0.2-0.5-0.1c-0.3-0.3-0.9-1.1-1.1-1.2C12.4,27.1,11.6,26.2,13.6,25.6"/>
		<path class="st1" d="M21.9,25.8c0,0-1,0-1.7,0.3c-0.7,0.3-1.6,1.4-1.2,1.4c0,0,0.1,0,0.1,0.3c0,0.2,0.3,0.3,0.5,0.2
			c0,0-0.3,0.9,0.7,0.2c0,0,0,0.4,0.3,0.3c0.3-0.1,1-1.1,1.4-1.1c0.4,0,0.9,0.1,1.1,0C23.2,27.2,22.2,25.8,21.9,25.8"/>
		<path class="st1" d="M15.7,10.8c0,0,1.5-0.7,2.5,0.3c1,1,0.8,4.6-0.3,4.9c-1.1,0.3-1.9,0.4-2.2-0.1C15.3,15.4,14.2,11.9,15.7,10.8
			"/>
		<path class="st1" d="M20.1,21.4c0,0.1-0.1,0.2-0.3,0.2l-1.2-0.1c-0.1,0-0.3-0.1-0.2-0.3l0-1c0-0.1,0.1-0.2,0.3-0.2l1.2,0
			c0.1,0,0.3,0.1,0.2,0.3L20.1,21.4z"/>
	</g>
</g>
<path class="st1" d="M29.6,25.2c0-2.7,2-4.9,4.5-4.9c1,0,2,0.4,2.8,1c0.8-0.9,1.9-1.5,3.2-1.5c0.7,0,1.4,0.2,2,0.5l-0.3,1
	c-0.5-0.3-1.1-0.5-1.7-0.5c-0.9,0-1.8,0.4-2.4,1.1l-0.7,0.8l-0.8-0.7c-0.6-0.5-1.3-0.8-2.1-0.8c-1.8,0-3.4,1.6-3.5,3.9l0,1.2l-1,0.1
	c-1.7,0.1-2.9,1.7-2.9,3.9l0,0.2l-1,0.1l0-0.3c0-2.6,1.5-4.8,3.8-4.9L29.6,25.2L29.6,25.2z"/>
<path class="st1" d="M40.6,36.7v-0.2h1.1v0.2H40.6L40.6,36.7z M37.1,23c0.8-1.7,2.7-2.4,4.4-2.2c1-0.9,2.1-1.1,3.3-0.7l-0.3,1
	c0,0-0.5-0.1-0.5-0.1c-0.9-0.1-1.5,0.4-2.1,1c0,0-0.5-0.1-0.9-0.1c-0.4,0-1,0.1-1.7,0.4c-0.7,0.3-1.3,1.3-1.3,1.7v1.2
	c-1.1-1-2.9-2.6-4.5-1.5c-1.4,1-1.4,2.8-1.1,4.2c-1.8,0.2-3.6,1-3.6,3.1c0,1.8,0.9,2.4,2.4,2.7c0,0-0.5,0.6-0.6,0.7
	c-0.6,0.8-0.8,1.6-0.8,2.3h-1.1c-0.1-0.8,0.1-1.6,0.6-2.5c-1.2-0.7-1.7-2-1.7-3.3c0-2.2,1.5-3.6,3.4-4.1
	C30.8,23.3,33.8,20.9,37.1,23L37.1,23z"/>
<path class="st1" d="M43,36.7c1.1-1.5,1.3-3.5,0.3-5.2l-0.2-0.4c2.2-1.2,2.8-2,2.4-4.6l0.3-0.2l0.2-0.1c0.9-0.9,1-2,0.9-3.2l1.1-0.1
	c0.1,1.5-0.1,3-1.3,4.1c0,0.2,0,0.5,0,0.8c0,1.8-0.6,2.8-2.1,3.8c0.8,1.6,0.6,3.6-0.3,5.2H43L43,36.7z"/>
<polygon class="st1" points="25.8,34.5 48.1,34.5 47.3,36.7 26.6,36.7 25.8,34.5 "/>
<path class="st14" d="M49.9,29.1V17.2H25.2l0.9,1.2h22.7v10.8c0,0.1,0.1,0.7,0,1.8c-0.1,1.1-0.4,2.7-1,4.4
	C46.4,38.8,43.5,42.9,37,46c-6.5-3.1-9.4-7.3-10.7-10.6c-0.7-1.7-0.9-3.3-1-4.4c-0.1-1.1,0-1.7,0-1.7l0-1.5l-1.2,0.4v0.9
	c0,0-1.3,11.7,12.9,18.2C51.2,40.9,49.9,29.1,49.9,29.1z"/>
</svg>
