<svg id="Ebene_1" data-name="Ebene 1" xmlns="http://www.w3.org/2000/svg" viewBox="0 0 60 60"><defs><style>.cls-1{fill:#fff;}</style></defs><title>iconset</title><path class="cls-1" d="M49.82,42.14V42a1,1,0,0,0,0-.3.74.74,0,0,1,0-.21.66.66,0,0,0,0-.14V33.61a.91.91,0,0,0,0-.17,1.43,1.43,0,0,0-.4-.74,2.58,2.58,0,0,0-.7-.51,6.09,6.09,0,0,0-1.32-.49,16.87,16.87,0,0,0-3.47-.48,16.43,16.43,0,0,0-1.72,0l-.86.06-.57,0,0,0a13.36,13.36,0,0,0-2.38-3.12,10.2,10.2,0,0,0-1.3-1.1L35.35,25.9l-1.15-.78-2-1.35a6.92,6.92,0,0,0-1.1-.66,5.28,5.28,0,0,0-2.39-.57H24.29c-.37,0-.75,0-1.12,0a5.78,5.78,0,0,0-1.85.46,6.78,6.78,0,0,0-1.36.81l-2.19,1.59-1.09.8-.43.31c-.33.24-.68.48-1,.75a13.37,13.37,0,0,0-5,9.71l0,.23V38s0,.07,0,.11l0,.37.06.73a12.38,12.38,0,0,0,.38,1.91,13.81,13.81,0,0,0,1.5,3.4,10.81,10.81,0,0,0,1.59,2.07,7,7,0,0,0,.78.66,4.32,4.32,0,0,0,2.6.84h0c3.23,0,6.45,0,9.68,0h3.32a5.38,5.38,0,0,0,4.18,2h.41A5.4,5.4,0,0,0,39,47.57a14.28,14.28,0,0,0,3.73.55,16.05,16.05,0,0,0,2.93-.21,11.3,11.3,0,0,0,2-.51A5.54,5.54,0,0,0,49,46.7a2.3,2.3,0,0,0,.61-.65,1.27,1.27,0,0,0,.21-.74V42.14Zm-7,4.39a12.4,12.4,0,0,1-3.09-.42h0A5.8,5.8,0,0,0,39.82,45a5,5,0,0,0,0-1.1l.19,0a17.92,17.92,0,0,0,1.82.19,19.79,19.79,0,0,0,2.17,0,17,17,0,0,0,3.25-.43,6.56,6.56,0,0,0,1-.33v.41c0,.48,0,1,0,1.43a.12.12,0,0,1-.05.12l-.06,0a3.88,3.88,0,0,1-.33.23,6,6,0,0,1-1.22.48,10.69,10.69,0,0,1-1.79.37A13.94,13.94,0,0,1,42.77,46.53ZM28.93,45.19a6.3,6.3,0,0,0,.24,1.34H17.23a2.87,2.87,0,0,1-1.1-.17,3.75,3.75,0,0,1-1.08-.7,7.79,7.79,0,0,1-1.23-1.48,12.42,12.42,0,0,1-1.62-3.46,11.43,11.43,0,0,1-.34-1.82,12.17,12.17,0,0,1-.07-1.56,11.74,11.74,0,0,1,2.33-6.64,11.16,11.16,0,0,1,2.08-2.15l.91-.67.36-.26L21.11,25a4.27,4.27,0,0,1,2-.79,11.85,11.85,0,0,1,1.34,0h1.06c1,0,2.08,0,3.12,0h0a4,4,0,0,1,2,.53c.19.1.37.22.54.33l1.46,1,1.2.82.91.61,1.43,1a8.48,8.48,0,0,1,1.13,1,11.79,11.79,0,0,1,1.78,2.23,7.8,7.8,0,0,0-1.59.52,3.3,3.3,0,0,0-.72.46,1.72,1.72,0,0,0-.47.64,1.36,1.36,0,0,0-.09.51v5.82a5.52,5.52,0,0,0-1.29-.31,5.48,5.48,0,0,0-3,.56,5.44,5.44,0,0,0-1.8,1.46A5.38,5.38,0,0,0,29,43.51,5.79,5.79,0,0,0,28.93,45.19ZM31.62,42a3.86,3.86,0,1,1-1.12,2.76A3.93,3.93,0,0,1,31.62,42Zm16.62-4.76a.13.13,0,0,1,0,.11l0,0a1.5,1.5,0,0,1-.25.19,5.34,5.34,0,0,1-1.16.5,11.12,11.12,0,0,1-1.9.41,16.25,16.25,0,0,1-2.32.11A12.47,12.47,0,0,1,39.22,38a5.22,5.22,0,0,1-.93-.38,2.56,2.56,0,0,1-.35-.22l0,0a.14.14,0,0,1-.06-.14V35.36a8,8,0,0,0,1.65.45c.48.08,1,.16,1.46.21a11.11,11.11,0,0,0,1.14.08c.5,0,.91,0,1.29,0,.59,0,1.2,0,1.81-.11a14.4,14.4,0,0,0,2.31-.41l.55-.19.18-.06v.37C48.23,36.21,48.23,36.7,48.24,37.19Zm-.18-3.51a3.32,3.32,0,0,1-.75.31,10.73,10.73,0,0,1-1.82.39,20.23,20.23,0,0,1-3,.15c-.56,0-1.14-.05-1.7-.11A11.14,11.14,0,0,1,38.75,34a4.19,4.19,0,0,1-.77-.32h0a3.17,3.17,0,0,1,.73-.32A9.54,9.54,0,0,1,40.27,33a19.55,19.55,0,0,1,3.61-.18,14.56,14.56,0,0,1,2.8.35,6.07,6.07,0,0,1,1.18.38,1.67,1.67,0,0,1,.23.12ZM37.83,39.14a9.47,9.47,0,0,0,2.16.69c.53.1,1.07.18,1.66.24a15.54,15.54,0,0,0,2,0,14.92,14.92,0,0,0,2.91-.4,7.71,7.71,0,0,0,1.63-.57v.55c0,.5,0,1,0,1.51,0,.07,0,.08,0,.09l-.05,0a2.64,2.64,0,0,1-.29.21,5.65,5.65,0,0,1-1.26.51,11.2,11.2,0,0,1-1.9.38,14.59,14.59,0,0,1-2.31.09A11.68,11.68,0,0,1,39.21,42a.26.26,0,0,1-.19-.14,5,5,0,0,0-1.14-1.34.14.14,0,0,1-.06-.12c0-.31,0-.62,0-.93Z"/><path class="cls-1" d="M19.38,14.24a10.49,10.49,0,0,1,1.06,1.51,6.14,6.14,0,0,1,.52,1,2.09,2.09,0,0,0,1.95,1.36h4.91a2.52,2.52,0,0,0,.43,0,2,2,0,0,0,1.53-1.35,12,12,0,0,1,1.08-2.19,3.73,3.73,0,0,1,.67-.79,2.08,2.08,0,0,0-.7-3.49,7.47,7.47,0,0,0-1.56-.36l-.2,0-.16,0h-.62l-.12,0-.2,0a4.83,4.83,0,0,0-2.41,1,.75.75,0,0,1-.21.12.47.47,0,0,1-.46-.1,4.8,4.8,0,0,0-1.17-.69,5,5,0,0,0-1.45-.34H21.4a6.64,6.64,0,0,0-1.79.38A2,2,0,0,0,18.24,12,2.09,2.09,0,0,0,19,13.8,4.35,4.35,0,0,1,19.38,14.24Zm.46-2.14a.4.4,0,0,1,.28-.32,5.38,5.38,0,0,1,1.14-.27,4,4,0,0,1,.83,0,3.18,3.18,0,0,1,1.81.69,2.09,2.09,0,0,0,.74.38,2.05,2.05,0,0,0,1.88-.37,3.27,3.27,0,0,1,1.36-.64,4,4,0,0,1,1.2,0,7.26,7.26,0,0,1,1.18.27.48.48,0,0,1,.35.35.46.46,0,0,1-.15.45,7.17,7.17,0,0,0-1.43,2,16.68,16.68,0,0,0-.75,1.67.46.46,0,0,1-.48.34H23a.71.71,0,0,1-.23,0,.4.4,0,0,1-.27-.25,11.22,11.22,0,0,0-1.38-2.4,7.5,7.5,0,0,0-.94-1.13l-.08-.07-.1-.09A.48.48,0,0,1,19.84,12.1Z"/><path class="cls-1" d="M31.16,20.77V19.31a.79.79,0,0,0-.28-.58.76.76,0,0,0-.61-.18.66.66,0,0,0-.2.06h0a.94.94,0,0,0-.43-.08H21.66a.8.8,0,0,0-.19,1.56,1.26,1.26,0,0,0,.3,0h7.8v.4H22.24a.81.81,0,0,0-.67.72.78.78,0,0,0,.59.83,1.31,1.31,0,0,0,.27,0h7.74a.22.22,0,0,1,.16.05,3.37,3.37,0,0,0,2.09.73,3.16,3.16,0,0,0,.74-.08,3.34,3.34,0,0,0,1.71-.92.78.78,0,0,0,.25-.55.81.81,0,0,0-.47-.75.78.78,0,0,0-.88.15,1.88,1.88,0,0,1-1.49.53,1.78,1.78,0,0,1-1.09-.44A.08.08,0,0,1,31.16,20.77Z"/><path class="cls-1" d="M24.37,27.2h0a5.69,5.69,0,0,0-1.49.21,8.51,8.51,0,0,0-2.39,1.06A12.65,12.65,0,0,0,17,31.74a11.15,11.15,0,0,0-1.66,3.13,7.58,7.58,0,0,0-.43,2.29v.19a.77.77,0,0,0,.33.63.79.79,0,0,0,.46.15,1,1,0,0,0,.24,0,.79.79,0,0,0,.56-.74,5.43,5.43,0,0,1,.08-.92,7.55,7.55,0,0,1,.59-1.84,11.38,11.38,0,0,1,2-3,11,11,0,0,1,2.29-1.88,5.75,5.75,0,0,1,2.95-.94.63.63,0,0,0,.22-.05.79.79,0,0,0,.5-.89A.8.8,0,0,0,24.37,27.2Z"/></svg>