<svg id="Ebene_1" data-name="Ebene 1" xmlns="http://www.w3.org/2000/svg" viewBox="0 0 60 60"><defs><style>.cls-1{fill:#fff;}</style></defs><title>iconset</title><path class="cls-1" d="M49.46,36a2.16,2.16,0,0,0-.87-2.67c-.64-.38-1.29-.77-1.94-1.14L46.44,32l0-.25a16.44,16.44,0,0,0,0-3.84l0-.25.21-.12,1.94-1.14a2.16,2.16,0,0,0,.87-2.67L48.08,20.4a2.18,2.18,0,0,0-2.51-1.27l-2.17.56-.24.07-.16-.2a16.54,16.54,0,0,0-2.71-2.71l-.2-.16.07-.23c.19-.73.38-1.46.56-2.17a2.16,2.16,0,0,0-1.27-2.51L36.1,10.39a2.16,2.16,0,0,0-2.67.87c-.38.64-.77,1.29-1.14,1.94l-.12.21-.25,0a16.44,16.44,0,0,0-3.84,0l-.25,0-.12-.21c-.38-.66-.76-1.31-1.14-1.94a2.16,2.16,0,0,0-2.67-.87l-3.35,1.39a2.17,2.17,0,0,0-1.27,2.51c.18.71.37,1.44.56,2.16l.07.24-.2.16A16.54,16.54,0,0,0,17,19.56l-.16.2-.23-.07-2.17-.56a2.16,2.16,0,0,0-2.51,1.27l-1.39,3.35a2.16,2.16,0,0,0,.87,2.67c.64.38,1.29.77,1.94,1.14l.21.12,0,.25a16.44,16.44,0,0,0,0,3.84l0,.25-.21.12c-.65.37-1.3.76-1.94,1.14A2.16,2.16,0,0,0,10.54,36l1.39,3.35a2.15,2.15,0,0,0,2.5,1.27L16.6,40l.24-.07.16.2a16.54,16.54,0,0,0,2.71,2.71l.2.16-.07.24c-.19.72-.38,1.45-.56,2.17a2.18,2.18,0,0,0,1.27,2.51l3.35,1.38a2.21,2.21,0,0,0,2.67-.87c.38-.63.76-1.28,1.14-1.94l.12-.21.25,0a16.44,16.44,0,0,0,3.84,0l.25,0,.12.21c.37.65.76,1.3,1.14,1.94a2.16,2.16,0,0,0,2.67.87l3.35-1.38a2.17,2.17,0,0,0,1.27-2.51c-.18-.71-.37-1.44-.56-2.17L40.09,43l.2-.16A16.16,16.16,0,0,0,43,40.14l.16-.2.23.07,2.17.56a2.17,2.17,0,0,0,2.52-1.27ZM46.2,38.72l-.31-.08c-.69-.17-1.39-.36-2.09-.55a2.17,2.17,0,0,0-2.27.76A14.83,14.83,0,0,1,39,41.39a2.15,2.15,0,0,0-.76,2.26c.19.7.38,1.41.55,2.09l.08.31-3.68,1.53L35,47.3c-.37-.61-.73-1.24-1.09-1.86a2.16,2.16,0,0,0-2.13-1.07,14.38,14.38,0,0,1-3.59,0,2.17,2.17,0,0,0-2.14,1.06c-.36.64-.73,1.26-1.09,1.87l-.17.28-3.68-1.53.08-.31c.18-.69.36-1.39.55-2.09A2.17,2.17,0,0,0,21,41.38a14.83,14.83,0,0,1-2.54-2.53,2.15,2.15,0,0,0-2.26-.76c-.7.19-1.4.38-2.09.55l-.31.08L12.27,35l.28-.17,1.87-1.09a2.15,2.15,0,0,0,1.06-2.13,14.87,14.87,0,0,1,0-3.59,2.14,2.14,0,0,0-1.06-2.13l-1.87-1.1-.28-.17L13.8,21l.31.08,2.09.55a2.17,2.17,0,0,0,2.27-.76A14.83,14.83,0,0,1,21,18.31a2.15,2.15,0,0,0,.76-2.26c-.19-.69-.37-1.4-.55-2.09l-.08-.31,3.68-1.53.17.28,1.09,1.86a2.15,2.15,0,0,0,2.13,1.07,14.38,14.38,0,0,1,3.59,0,2.17,2.17,0,0,0,2.14-1.06c.36-.63.73-1.26,1.09-1.87l.17-.28,3.68,1.53-.08.31c-.18.69-.36,1.39-.55,2.1A2.16,2.16,0,0,0,39,18.32a14.83,14.83,0,0,1,2.54,2.53,2.15,2.15,0,0,0,2.26.76l2.09-.55L46.2,21l1.53,3.68-.28.17-1.87,1.09a2.16,2.16,0,0,0-1.06,2.14,14.3,14.3,0,0,1,0,3.58,2.17,2.17,0,0,0,1.06,2.14l1.87,1.09.28.17Z"/><path class="cls-1" d="M38.16,26.47a8.79,8.79,0,0,0-4.78-4.78A8.83,8.83,0,0,0,21.84,33.23a8.83,8.83,0,0,0,16.32-6.76ZM30,36.74a6.89,6.89,0,0,1-2.63-13.25A6.77,6.77,0,0,1,30,23a6.89,6.89,0,0,1,0,13.77Z"/></svg>