<?xml version="1.0" encoding="utf-8"?>
<!-- Generator: Adobe Illustrator 21.1.0, SVG Export Plug-In . SVG Version: 6.00 Build 0)  -->
<svg version="1.1" id="Ebene_1" xmlns="http://www.w3.org/2000/svg" xmlns:xlink="http://www.w3.org/1999/xlink" x="0px" y="0px"
	 viewBox="0 0 60 60" style="enable-background:new 0 0 60 60;" xml:space="preserve">
<style type="text/css">
	.st0{fill:#027CB7;}
	.st1{fill:#FFFFFF;}
	.st2{fill:#25AAE2;}
	.st3{fill:#CF322E;}
	.st4{fill:#3C5A9B;}
	.st5{fill:none;stroke:#00A28F;stroke-width:6;stroke-miterlimit:10;}
	.st6{fill:none;stroke:#00A28F;stroke-width:3;stroke-miterlimit:10;}
	.st7{fill:#00A28F;}
	.st8{fill:#777A7E;}
	.st9{fill-rule:evenodd;clip-rule:evenodd;fill:#777A7E;}
	.st10{opacity:0.75;}
	.st11{fill:none;stroke:#000000;stroke-width:0.3;stroke-linecap:round;stroke-linejoin:round;stroke-miterlimit:10;}
	.st12{stroke:#000000;stroke-width:0.2;stroke-linecap:round;stroke-linejoin:round;stroke-miterlimit:10;}
	.st13{stroke:#000000;stroke-width:0.2;stroke-miterlimit:10;}
	.st14{stroke:#000000;stroke-width:0.2;stroke-linejoin:round;stroke-miterlimit:10;}
	.st15{fill-rule:evenodd;clip-rule:evenodd;}
	.st16{fill:#2C2A29;}
	.st17{fill:none;stroke:#000000;}
</style>
<circle class="st0" cx="30" cy="30" r="20"/>
<g>
	<path class="st1" d="M23.5,24L23.5,24c-1.4,0-2.3-0.9-2.3-2.1c0-1.2,0.9-2.1,2.3-2.1c1.4,0,2.2,0.9,2.3,2.1
		C25.8,23.1,24.9,24,23.5,24z M25.5,37.8h-4V25.6h4V37.8z M40.1,37.8h-4v-6.5c0-1.6-0.6-2.7-2-2.7c-1.1,0-1.8,0.7-2.1,1.5
		c-0.1,0.3-0.1,0.6-0.1,1v6.8h-4c0-11,0-12.2,0-12.2h4v1.8h0c0.5-0.8,1.5-2,3.7-2c2.7,0,4.6,1.7,4.6,5.5V37.8z"/>
</g>
</svg>
