<?xml version="1.0" encoding="utf-8"?>
<!-- Generator: Adobe Illustrator 21.1.0, SVG Export Plug-In . SVG Version: 6.00 Build 0)  -->
<svg version="1.1" id="Ebene_1" xmlns="http://www.w3.org/2000/svg" xmlns:xlink="http://www.w3.org/1999/xlink" x="0px" y="0px"
	 viewBox="0 0 60 60" style="enable-background:new 0 0 60 60;" xml:space="preserve">
<style type="text/css">
	.st0{fill:#027CB7;}
	.st1{fill:#FFFFFF;}
	.st2{fill:#25AAE2;}
	.st3{fill:#CF322E;}
	.st4{fill:#3C5A9B;}
	.st5{fill:none;stroke:#00A28F;stroke-width:6;stroke-miterlimit:10;}
	.st6{fill:none;stroke:#00A28F;stroke-width:3;stroke-miterlimit:10;}
	.st7{fill:#00A28F;}
	.st8{opacity:0.75;}
	.st9{fill:none;stroke:#FFFFFF;stroke-width:0.3;stroke-linecap:round;stroke-linejoin:round;stroke-miterlimit:10;}
	.st10{fill:none;stroke:#000000;stroke-width:0.3;stroke-linecap:round;stroke-linejoin:round;stroke-miterlimit:10;}
	.st11{stroke:#FFFFFF;stroke-width:0.2;stroke-linecap:round;stroke-linejoin:round;stroke-miterlimit:10;}
	.st12{stroke:#000000;stroke-width:0.2;stroke-miterlimit:10;}
	.st13{stroke:#FFFFFF;stroke-width:0.2;stroke-linejoin:round;stroke-miterlimit:10;}
	.st14{fill-rule:evenodd;clip-rule:evenodd;fill:#FFFFFF;}
	.st15{fill:none;stroke:#000000;}
	.st16{fill-rule:evenodd;clip-rule:evenodd;}
	.st17{fill:#2C2A29;}
</style>
<g>
	<path class="st9" d="M13.9,25.5v-4.2c0-1.2,0.6-1.1,0.6-1.1s0.7-0.1,0.7,1.9v1.8c0,0,0.3,0.1,0.3-0.4c0,0-0.1-6-0.1-7.8
		c0-1.3,1.8-1.1,1.8-0.2V21v0v-6.6c0-1,2-1,2-0.1v6.7v0v-5.7c0-0.8,2-0.9,2,0.1v6.6v0v-4.6c0-1,2-1.1,2,0c0,1.8,0.1,8.1,0.1,8.1
		s0.1,2.4-1.4,5.2c-1.6,2.9-2.8,2.5-5,0C16.2,30.1,15.2,29.9,13.9,25.5z"/>
	<path class="st1" d="M16.3,30.2c0,0,3.2,1.4,6-0.2l0.9,13.9c0,0,0.5,2.1-1.4,2.1c-1.9,0-7.1-0.4-7.1-0.4s-0.7,0.4-0.4-1.8
		S16.3,30.2,16.3,30.2"/>
</g>
<g>
	<path class="st1" d="M34.4,23.5l0.2-0.1c1.1-0.6,2-1,3.3-0.7c0.4,0.1,0.7,0.2,1,0.3c0.5,0.2,1,0.4,1.9,0.4l0-0.4
		c-0.9,0-1.3-0.2-1.8-0.4c-0.3-0.1-0.6-0.2-1-0.4c-1.4-0.4-2.5,0.2-3.6,0.7l-0.2,0.1L34.4,23.5z M34.4,24.4l0.2-0.1
		c1.1-0.6,2-1,3.3-0.7c0.4,0.1,0.7,0.2,1,0.3c0.5,0.2,1,0.4,1.9,0.4l0-0.4c-0.9,0-1.3-0.2-1.8-0.4c-0.3-0.1-0.6-0.2-1-0.4
		c-1.4-0.4-2.5,0.1-3.6,0.7l-0.2,0.1L34.4,24.4z M34.4,25.3l0.2-0.1c1.1-0.6,2-1,3.3-0.7c0.4,0.1,0.7,0.2,1,0.3
		c0.5,0.2,1,0.4,1.9,0.4l0-0.4c-0.9,0-1.3-0.2-1.8-0.4c-0.3-0.1-0.6-0.2-1-0.4c-1.4-0.4-2.5,0.1-3.6,0.7L34.3,25L34.4,25.3z
		 M34.4,26.2l0.2-0.1c1.1-0.6,2-1,3.3-0.7c0.4,0.1,0.7,0.2,1,0.3c0.5,0.2,1,0.4,1.9,0.4l0-0.4c-0.9,0-1.3-0.2-1.8-0.4
		c-0.3-0.1-0.6-0.2-1-0.4c-1.4-0.4-2.5,0.1-3.6,0.7l-0.2,0.1L34.4,26.2z M37.1,39l0,0.2H37h-7.3h-0.2l0-0.2l2-12.1
		c0-0.2-0.2-0.4-0.8-1l0.3-0.3c0.7,0.7,0.9,0.9,0.9,1.3l0,0l0,0l-1.1,6.7h5.1l-1.1-6.7l0,0l0,0c0.1-0.3,0.2-0.6,0.9-1.3l0.3,0.3
		c-0.7,0.7-0.8,0.8-0.8,1L37.1,39z"/>
</g>
<path class="st1" d="M46.1,29.2v-12h-5H25.5h-1.6v1.3h1.6h15.6h3.9l0,10.7c0,0.1,0.1,0.8,0,1.8c-0.1,1.1-0.4,2.6-1,4.4
	c-1.3,3.4-4.2,7.5-10.6,10.6c-6-2.9-8.9-6.7-10.2-9.7l0.1,2.7c1.6,2.8,4.8,5.9,10.1,8.3l0,0c0,0,0,0,0,0c0,0,0,0,0,0l0,0
	C47.4,40.9,46.1,29.2,46.1,29.2z"/>
</svg>
