<svg id="Ebene_1" data-name="Ebene 1" xmlns="http://www.w3.org/2000/svg" viewBox="0 0 60 60"><defs><style>.cls-1{fill:#fff;fill-rule:evenodd;}</style></defs><title>iconset</title><path class="cls-1" d="M42.33,47.68l.11.18.15.35c.06.16.13.32.2.48a1.93,1.93,0,0,0,1.9,1.24H52A1.32,1.32,0,0,0,53.34,48L40.4,11.35a1.88,1.88,0,0,0-2-1.42H26.27a1.94,1.94,0,0,0-2.09,1.48L11.26,48a1.45,1.45,0,0,0,.11,1.34,1.47,1.47,0,0,0,1.24.56h7.23a2,2,0,0,0,2-1.32c.07-.18.15-.36.24-.56l.63-1.46v1.54a3.08,3.08,0,0,0,0,.43,1.51,1.51,0,0,0,1.58,1.36h16a1.5,1.5,0,0,0,1.6-1.64v-.53Zm-19.45-3-.09.08a.39.39,0,0,1-.2.11,2,2,0,0,0-1.77,1.41c-.18.45-.39.92-.64,1.45a.61.61,0,0,1-.5.35H14.09l-.5,0L13.3,48l0-.29q4.23-12,8.45-24l1.77-5,.44.1.05.24ZM40,48.06H33.44l.14-1.32H40Zm1.86-3.19h0c-1.79,0-3.58,0-5.37,0h-3a1.57,1.57,0,0,0-1.67,1.42c-.05.34-.09.67-.13,1l-.09.75h-7l.26-5.82Q25.54,27.15,26.23,12v-.24H38a.68.68,0,0,1,.73.52l12.36,35,.06.19.18.55H45.09a.72.72,0,0,1-.76-.52c-.15-.4-.32-.79-.49-1.18l-.12-.25A1.89,1.89,0,0,0,41.82,44.87Z"/><path class="cls-1" d="M33.72,23.33,33,24.93,26.91,38.19A1.19,1.19,0,0,0,28.11,40H38.28c2.3,0,4.59,0,6.88,0a1.76,1.76,0,0,0,.81-.19.94.94,0,0,0,.48-.61A1.42,1.42,0,0,0,46.18,38L38.7,27.29q-1.44-2.09-2.9-4.15a1.24,1.24,0,0,0-1-.59H34.7A1.23,1.23,0,0,0,33.72,23.33Zm1.21,1.81,9,12.91H29Z"/><path class="cls-1" d="M36.56,12.94H28.9a1.51,1.51,0,0,0-1.16.5,1.48,1.48,0,0,0-.32,1.21c.07.49.15,1,.23,1.48a1.6,1.6,0,0,0,1.63,1.48c2.62,0,5.27,0,7.89,0a1.38,1.38,0,0,0,1.06-.5,1.5,1.5,0,0,0,.33-1.21c-.07-.47-.15-1-.22-1.42A1.67,1.67,0,0,0,36.56,12.94Zm0,2.6,0,.2h-7l-.18-.94h6.63a.7.7,0,0,1,.54.19A.72.72,0,0,1,36.57,15.54Z"/><path class="cls-1" d="M36.2,34.11c.12,0,.17,0,.17-.3V32h.11l0-.63c-.06-.75-.11-1.5-.19-2.24a.7.7,0,0,0-.24-.48,1,1,0,0,0-.61-.18l-.19,0a.62.62,0,0,0-.44.18.87.87,0,0,0-.07.62c.1.71.21,1.45.38,2.2s.32,1.25.49,1.86l.14.52C35.76,34.06,35.82,34.15,36.2,34.11Z"/><path class="cls-1" d="M36.18,35.4h0a.78.78,0,0,0-.54.22.6.6,0,0,0-.17.44.93.93,0,0,0,.95.82h0a.68.68,0,0,0,.73-.62.77.77,0,0,0-.26-.55A1,1,0,0,0,36.18,35.4Z"/></svg>