<svg id="Ebene_1" data-name="Ebene 1" xmlns="http://www.w3.org/2000/svg" viewBox="0 0 60 60"><defs><style>.cls-1,.cls-3{fill:none;stroke:#fff;}.cls-1{stroke-linecap:round;stroke-linejoin:round;stroke-width:0.3px;}.cls-2{fill:#fff;}</style></defs><title>iconset</title><path class="cls-1" d="M13.89,25.52V21.28c0-1.16.62-1.11.62-1.11s.69-.15.69,1.94v1.77s.29.11.28-.44c0,0-.1-6-.1-7.79,0-1.27,1.79-1.13,1.79-.17v-1c0-1,2-1,2-.11v1c0-.85,2-.88,2,.06v2c0-1,2-1.08,2,0,0,1.82.12,8.08.12,8.08a11.45,11.45,0,0,1-1.4,5.23c-1.56,2.94-2.85,2.5-5.05,0C16.21,30.15,15.2,29.92,13.89,25.52Z"/><path class="cls-2" d="M16.25,30.15a7.41,7.41,0,0,0,6-.22l.86,13.9s.46,2.1-1.42,2.09-7.11-.37-7.11-.37-.74.35-.41-1.76,2.06-13.64,2.06-13.64"/><path class="cls-2" d="M34.43,23.48l.17-.09a4.19,4.19,0,0,1,3.29-.69,8.83,8.83,0,0,1,1,.34,4.62,4.62,0,0,0,1.89.41v-.37A4.35,4.35,0,0,1,39,22.7,7.84,7.84,0,0,0,38,22.34a4.51,4.51,0,0,0-3.55.72l-.17.09Zm0,.92.17-.09a4.19,4.19,0,0,1,3.29-.69c.42.12.71.23,1,.34a4.62,4.62,0,0,0,1.89.41V24A4.52,4.52,0,0,1,39,23.62,9.58,9.58,0,0,0,38,23.26a4.51,4.51,0,0,0-3.55.72l-.17.09Zm0,.92.17-.09a4.19,4.19,0,0,1,3.29-.69,8.66,8.66,0,0,1,1,.35,5,5,0,0,0,1.89.41v-.38A4.35,4.35,0,0,1,39,24.54,9.58,9.58,0,0,0,38,24.18a4.51,4.51,0,0,0-3.55.72l-.17.09Zm0,.92.17-.09a4.19,4.19,0,0,1,3.29-.69c.42.12.71.23,1,.34a4.76,4.76,0,0,0,1.89.42v-.38A4.35,4.35,0,0,1,39,25.46,9.58,9.58,0,0,0,38,25.1a4.55,4.55,0,0,0-3.55.72l-.17.09ZM37.14,39l0,.22H29.46l0-.22,2.05-12c0-.21-.17-.38-.83-1l.26-.26c.7.69.89.92.94,1.26V27l-1.13,6.69h5.08L34.72,27v-.07c.06-.34.24-.57.94-1.26l.26.26c-.66.66-.79.83-.83,1Z"/><path class="cls-2" d="M41.07,18.47h1.46a2.83,2.83,0,0,1-.05-.5,2.56,2.56,0,0,1,.13-.79H23.9v1.29H41.07Z"/><path class="cls-2" d="M46.08,20.62a2.75,2.75,0,0,1-.81.14,1.86,1.86,0,0,1-.34,0v8.49a11.85,11.85,0,0,1,0,1.84,15.81,15.81,0,0,1-1,4.38C42.58,38.78,39.7,43,33.27,46c-6.05-2.88-9-6.72-10.17-9.73L23.19,39c1.64,2.76,4.76,5.91,10.05,8.33v0l0,0,0,0v0c14.09-6.43,12.79-18.07,12.79-18.07Z"/><path class="cls-2" d="M45.3,16.58h-.07c-.18,0-.25.05-.25.15v1H44c-.11,0-.16.08-.16.26v0c0,.17.05.24.16.24H45v1c0,.11.07.16.25.16h.07c.18,0,.25-.05.25-.16v-1h1c.11,0,.16-.07.16-.25v0c0-.18-.05-.25-.16-.25h-1v-1c0-.1-.07-.15-.25-.15"/><path class="cls-3" d="M45.27,20.76A2.79,2.79,0,1,0,42.48,18,2.79,2.79,0,0,0,45.27,20.76Z"/></svg>