<?xml version="1.0" encoding="utf-8"?>
<!-- Generator: Adobe Illustrator 21.1.0, SVG Export Plug-In . SVG Version: 6.00 Build 0)  -->
<svg version="1.1" id="Ebene_1" xmlns="http://www.w3.org/2000/svg" xmlns:xlink="http://www.w3.org/1999/xlink" x="0px" y="0px"
	 viewBox="0 0 60 60" style="enable-background:new 0 0 60 60;" xml:space="preserve">
<style type="text/css">
	.st0{fill:#027CB7;}
	.st1{fill:#FFFFFF;}
	.st2{fill:#25AAE2;}
	.st3{fill:#CF322E;}
	.st4{fill:#3C5A9B;}
	.st5{fill:none;stroke:#00A28F;stroke-width:6;stroke-miterlimit:10;}
	.st6{fill:none;stroke:#00A28F;stroke-width:3;stroke-miterlimit:10;}
	.st7{fill:#00A28F;}
	.st8{fill:#777A7E;}
	.st9{fill-rule:evenodd;clip-rule:evenodd;fill:#777A7E;}
	.st10{opacity:0.75;}
	.st11{fill:none;stroke:#000000;stroke-width:0.3;stroke-linecap:round;stroke-linejoin:round;stroke-miterlimit:10;}
	.st12{stroke:#000000;stroke-width:0.2;stroke-linecap:round;stroke-linejoin:round;stroke-miterlimit:10;}
	.st13{stroke:#000000;stroke-width:0.2;stroke-miterlimit:10;}
	.st14{stroke:#000000;stroke-width:0.2;stroke-linejoin:round;stroke-miterlimit:10;}
	.st15{fill-rule:evenodd;clip-rule:evenodd;}
	.st16{fill:#2C2A29;}
	.st17{fill:none;stroke:#000000;}
</style>
<circle class="st3" cx="30" cy="30" r="20"/>
<g>
	<path class="st1" d="M41.6,35.6c-0.3,1.2-1.2,2.1-2.4,2.3c-2.8,0.3-5.6,0.3-8.4,0.3s-5.6,0-8.4-0.3c-1.2-0.1-2.2-1-2.4-2.3
		c-0.4-1.7-0.4-3.6-0.4-5.4c0-1.8,0-3.7,0.4-5.4c0.3-1.2,1.2-2.1,2.4-2.3c2.8-0.3,5.6-0.3,8.4-0.3s5.6,0,8.4,0.3
		c1.2,0.1,2.1,1,2.4,2.3c0.4,1.7,0.4,3.6,0.4,5.4C42,32,42,33.9,41.6,35.6z M35.3,29.5l-6.4-4c-0.3-0.2-0.6-0.2-0.8,0
		c-0.3,0.1-0.4,0.4-0.4,0.7v8c0,0.3,0.2,0.6,0.4,0.7c0.1,0.1,0.2,0.1,0.4,0.1c0.2,0,0.3,0,0.4-0.1l6.4-4c0.2-0.1,0.4-0.4,0.4-0.7
		S35.5,29.6,35.3,29.5z"/>
</g>
</svg>
