<?xml version="1.0" encoding="utf-8"?>
<!-- Generator: Adobe Illustrator 21.1.0, SVG Export Plug-In . SVG Version: 6.00 Build 0)  -->
<svg version="1.1" id="Ebene_1" xmlns="http://www.w3.org/2000/svg" xmlns:xlink="http://www.w3.org/1999/xlink" x="0px" y="0px"
	 viewBox="0 0 60 60" style="enable-background:new 0 0 60 60;" xml:space="preserve">
<style type="text/css">
	.st0{fill:#027CB7;}
	.st1{fill:#FFFFFF;}
	.st2{fill:#25AAE2;}
	.st3{fill:#CF322E;}
	.st4{fill:#3C5A9B;}
	.st5{fill:none;stroke:#00A28F;stroke-width:6;stroke-miterlimit:10;}
	.st6{fill:none;stroke:#00A28F;stroke-width:3;stroke-miterlimit:10;}
	.st7{fill:#00A28F;}
	.st8{opacity:0.75;}
	.st9{fill:none;stroke:#FFFFFF;stroke-width:0.3;stroke-linecap:round;stroke-linejoin:round;stroke-miterlimit:10;}
	.st10{fill:none;stroke:#000000;stroke-width:0.3;stroke-linecap:round;stroke-linejoin:round;stroke-miterlimit:10;}
	.st11{stroke:#FFFFFF;stroke-width:0.2;stroke-linecap:round;stroke-linejoin:round;stroke-miterlimit:10;}
	.st12{stroke:#000000;stroke-width:0.2;stroke-miterlimit:10;}
	.st13{stroke:#FFFFFF;stroke-width:0.2;stroke-linejoin:round;stroke-miterlimit:10;}
	.st14{fill-rule:evenodd;clip-rule:evenodd;fill:#FFFFFF;}
	.st15{fill:none;stroke:#000000;}
	.st16{fill-rule:evenodd;clip-rule:evenodd;}
	.st17{fill:#2C2A29;}
</style>
<g>
	<path class="st1" d="M49.1,45.5c-0.6,1.4-2.2,2.3-3.5,3C44,49.5,42.3,50,40.4,50c-2.6,0-5-1.1-7.4-2c-1.7-0.6-3.4-1.4-5-2.4
		c-4.8-3-10.7-8.8-13.6-13.6c-1-1.6-1.7-3.2-2.4-5c-0.9-2.4-2-4.8-2-7.4c0-1.9,0.5-3.6,1.4-5.3c0.7-1.3,1.6-2.9,3-3.5
		c0.9-0.4,2.9-0.9,3.9-0.9c0.2,0,0.4,0,0.6,0.1c0.6,0.2,1.2,1.6,1.5,2.2c0.9,1.6,1.8,3.3,2.7,4.9c0.5,0.7,1.3,1.6,1.3,2.5
		c0,1.7-5.1,4.3-5.1,5.8c0,0.8,0.7,1.8,1.1,2.4c2.9,5.2,6.4,8.8,11.6,11.6c0.7,0.4,1.7,1.1,2.4,1.1c1.5,0,4.1-5.1,5.8-5.1
		c0.9,0,1.8,0.9,2.5,1.3c1.6,0.9,3.2,1.8,4.9,2.7c0.6,0.3,2,0.9,2.2,1.5c0.1,0.2,0.1,0.4,0.1,0.6C50,42.6,49.5,44.6,49.1,45.5z"/>
</g>
</svg>
